<svg width="365" height="40" viewBox="0 0 365 40" fill="none" xmlns="http://www.w3.org/2000/svg">
<rect width="365" height="40" rx="20" fill="white" fill-opacity="0.1"/>
<path d="M134.76 27C134.653 27 134.563 26.968 134.488 26.904C134.424 26.8293 134.392 26.7387 134.392 26.632V16.184C134.392 16.0667 134.424 15.976 134.488 15.912C134.563 15.8373 134.653 15.8 134.76 15.8H141.288C141.405 15.8 141.496 15.8373 141.56 15.912C141.635 15.976 141.672 16.0667 141.672 16.184V16.824C141.672 16.9307 141.635 17.0213 141.56 17.096C141.496 17.16 141.405 17.192 141.288 17.192H135.944V20.92H140.968C141.085 20.92 141.176 20.9573 141.24 21.032C141.315 21.096 141.352 21.1867 141.352 21.304V21.944C141.352 22.0507 141.315 22.1413 141.24 22.216C141.165 22.28 141.075 22.312 140.968 22.312H135.944V26.632C135.944 26.7387 135.907 26.8293 135.832 26.904C135.757 26.968 135.667 27 135.56 27H134.76ZM146.924 27.16C145.751 27.16 144.839 26.8293 144.188 26.168C143.548 25.5067 143.207 24.6267 143.164 23.528L143.148 22.84L143.164 22.152C143.207 21.064 143.553 20.1893 144.204 19.528C144.855 18.856 145.761 18.52 146.924 18.52C148.087 18.52 148.993 18.856 149.644 19.528C150.295 20.1893 150.641 21.064 150.684 22.152C150.695 22.2693 150.7 22.4987 150.7 22.84C150.7 23.1813 150.695 23.4107 150.684 23.528C150.641 24.6267 150.295 25.5067 149.644 26.168C149.004 26.8293 148.097 27.16 146.924 27.16ZM146.924 25.928C147.596 25.928 148.124 25.7147 148.508 25.288C148.903 24.8613 149.116 24.248 149.148 23.448C149.159 23.3413 149.164 23.1387 149.164 22.84C149.164 22.5413 149.159 22.3387 149.148 22.232C149.116 21.432 148.903 20.8187 148.508 20.392C148.124 19.9653 147.596 19.752 146.924 19.752C146.252 19.752 145.719 19.9653 145.324 20.392C144.929 20.8187 144.721 21.432 144.7 22.232L144.684 22.84L144.7 23.448C144.721 24.248 144.929 24.8613 145.324 25.288C145.719 25.7147 146.252 25.928 146.924 25.928ZM153.231 27C153.125 27 153.034 26.968 152.959 26.904C152.895 26.8293 152.863 26.7387 152.863 26.632V19.064C152.863 18.9573 152.895 18.8667 152.959 18.792C153.034 18.7173 153.125 18.68 153.231 18.68H153.967C154.074 18.68 154.165 18.7173 154.239 18.792C154.314 18.8667 154.351 18.9573 154.351 19.064V19.768C154.789 19.0427 155.535 18.68 156.591 18.68H157.215C157.322 18.68 157.407 18.7173 157.471 18.792C157.546 18.856 157.583 18.9413 157.583 19.048V19.704C157.583 19.8107 157.546 19.896 157.471 19.96C157.407 20.024 157.322 20.056 157.215 20.056H156.255C155.679 20.056 155.226 20.2267 154.895 20.568C154.565 20.8987 154.399 21.352 154.399 21.928V26.632C154.399 26.7387 154.362 26.8293 154.287 26.904C154.213 26.968 154.122 27 154.015 27H153.231ZM165.713 27C164.027 27 163.185 26.0613 163.185 24.184V19.96H161.937C161.83 19.96 161.739 19.928 161.665 19.864C161.601 19.7893 161.569 19.6987 161.569 19.592V19.048C161.569 18.9413 161.601 18.856 161.665 18.792C161.739 18.7173 161.83 18.68 161.937 18.68H163.185V16.008C163.185 15.9013 163.217 15.816 163.281 15.752C163.355 15.6773 163.446 15.64 163.553 15.64H164.305C164.411 15.64 164.497 15.6773 164.561 15.752C164.635 15.816 164.673 15.9013 164.673 16.008V18.68H166.657C166.763 18.68 166.849 18.7173 166.913 18.792C166.987 18.856 167.025 18.9413 167.025 19.048V19.592C167.025 19.6987 166.987 19.7893 166.913 19.864C166.849 19.928 166.763 19.96 166.657 19.96H164.673V24.072C164.673 24.6053 164.763 25.0107 164.945 25.288C165.126 25.5547 165.425 25.688 165.841 25.688H166.817C166.923 25.688 167.009 25.7253 167.073 25.8C167.147 25.864 167.185 25.9493 167.185 26.056V26.632C167.185 26.7387 167.147 26.8293 167.073 26.904C167.009 26.968 166.923 27 166.817 27H165.713ZM169.259 27C169.152 27 169.061 26.968 168.987 26.904C168.923 26.8293 168.891 26.7387 168.891 26.632V16.008C168.891 15.9013 168.923 15.816 168.987 15.752C169.061 15.6773 169.152 15.64 169.259 15.64H170.059C170.165 15.64 170.251 15.6773 170.315 15.752C170.389 15.816 170.427 15.9013 170.427 16.008V19.736C170.736 19.3413 171.099 19.0427 171.515 18.84C171.931 18.6267 172.448 18.52 173.067 18.52C174.091 18.52 174.885 18.8507 175.451 19.512C176.027 20.1627 176.315 21.032 176.315 22.12V26.632C176.315 26.7387 176.277 26.8293 176.203 26.904C176.139 26.968 176.053 27 175.947 27H175.147C175.04 27 174.949 26.968 174.875 26.904C174.811 26.8293 174.779 26.7387 174.779 26.632V22.2C174.779 21.4427 174.592 20.856 174.219 20.44C173.856 20.024 173.328 19.816 172.635 19.816C171.963 19.816 171.424 20.0293 171.019 20.456C170.624 20.872 170.427 21.4533 170.427 22.2V26.632C170.427 26.7387 170.389 26.8293 170.315 26.904C170.251 26.968 170.165 27 170.059 27H169.259ZM182.113 27.16C181.014 27.16 180.134 26.824 179.473 26.152C178.822 25.4693 178.465 24.5413 178.401 23.368L178.385 22.824L178.401 22.296C178.475 21.144 178.838 20.2267 179.489 19.544C180.15 18.8613 181.019 18.52 182.097 18.52C183.281 18.52 184.198 18.8987 184.849 19.656C185.499 20.4027 185.825 21.416 185.825 22.696V22.968C185.825 23.0747 185.787 23.1653 185.713 23.24C185.649 23.304 185.563 23.336 185.457 23.336H179.921V23.48C179.953 24.1733 180.161 24.7653 180.545 25.256C180.939 25.736 181.457 25.976 182.097 25.976C182.587 25.976 182.987 25.88 183.297 25.688C183.617 25.4853 183.851 25.2773 184.001 25.064C184.097 24.936 184.166 24.8613 184.209 24.84C184.262 24.808 184.353 24.792 184.481 24.792H185.265C185.361 24.792 185.441 24.8187 185.505 24.872C185.569 24.9253 185.601 25 185.601 25.096C185.601 25.3307 185.451 25.6133 185.153 25.944C184.865 26.2747 184.454 26.5627 183.921 26.808C183.398 27.0427 182.795 27.16 182.113 27.16ZM184.305 22.232V22.184C184.305 21.448 184.102 20.8507 183.697 20.392C183.302 19.9227 182.769 19.688 182.097 19.688C181.425 19.688 180.891 19.9227 180.497 20.392C180.113 20.8507 179.921 21.448 179.921 22.184V22.232H184.305ZM192.556 27C192.449 27 192.358 26.968 192.284 26.904C192.22 26.8293 192.188 26.7387 192.188 26.632V16.184C192.188 16.0667 192.22 15.976 192.284 15.912C192.358 15.8373 192.449 15.8 192.556 15.8H196.94C198.081 15.8 198.94 16.072 199.516 16.616C200.092 17.16 200.38 17.8747 200.38 18.76C200.38 19.3573 200.241 19.8533 199.964 20.248C199.697 20.6427 199.377 20.9307 199.004 21.112C199.452 21.336 199.83 21.6827 200.14 22.152C200.449 22.6213 200.604 23.16 200.604 23.768C200.604 24.3653 200.465 24.9093 200.188 25.4C199.921 25.8907 199.521 26.28 198.988 26.568C198.454 26.856 197.814 27 197.068 27H192.556ZM196.7 20.536C197.372 20.536 197.884 20.3813 198.236 20.072C198.598 19.7627 198.78 19.3307 198.78 18.776C198.78 18.232 198.604 17.816 198.252 17.528C197.9 17.24 197.382 17.096 196.7 17.096H193.756V20.536H196.7ZM196.86 25.704C197.532 25.704 198.054 25.5227 198.428 25.16C198.812 24.7973 199.004 24.3333 199.004 23.768C199.004 23.1813 198.812 22.712 198.428 22.36C198.054 21.9973 197.532 21.816 196.86 21.816H193.756V25.704H196.86ZM203.211 27C203.104 27 203.014 26.968 202.939 26.904C202.875 26.8293 202.843 26.7387 202.843 26.632V16.008C202.843 15.9013 202.875 15.816 202.939 15.752C203.014 15.6773 203.104 15.64 203.211 15.64H203.963C204.07 15.64 204.155 15.6773 204.219 15.752C204.294 15.816 204.331 15.9013 204.331 16.008V26.632C204.331 26.7387 204.294 26.8293 204.219 26.904C204.155 26.968 204.07 27 203.963 27H203.211ZM209.198 27.16C208.675 27.16 208.19 27.0533 207.742 26.84C207.294 26.6267 206.936 26.3387 206.67 25.976C206.414 25.6027 206.286 25.192 206.286 24.744C206.286 24.04 206.574 23.464 207.15 23.016C207.736 22.5573 208.526 22.2587 209.518 22.12L211.902 21.784V21.32C211.902 20.232 211.278 19.688 210.03 19.688C209.56 19.688 209.176 19.7893 208.878 19.992C208.579 20.184 208.355 20.4133 208.206 20.68C208.174 20.776 208.131 20.8453 208.078 20.888C208.035 20.9307 207.971 20.952 207.886 20.952H207.198C207.102 20.952 207.016 20.92 206.942 20.856C206.878 20.7813 206.846 20.696 206.846 20.6C206.856 20.344 206.974 20.056 207.198 19.736C207.432 19.4053 207.79 19.1227 208.27 18.888C208.75 18.6427 209.342 18.52 210.046 18.52C211.24 18.52 212.099 18.8027 212.622 19.368C213.144 19.9227 213.406 20.616 213.406 21.448V26.632C213.406 26.7387 213.368 26.8293 213.294 26.904C213.23 26.968 213.144 27 213.038 27H212.302C212.195 27 212.104 26.968 212.03 26.904C211.966 26.8293 211.934 26.7387 211.934 26.632V25.944C211.699 26.2853 211.358 26.5733 210.91 26.808C210.462 27.0427 209.891 27.16 209.198 27.16ZM209.534 25.96C210.227 25.96 210.792 25.736 211.23 25.288C211.678 24.8293 211.902 24.1733 211.902 23.32V22.872L210.046 23.144C209.288 23.2507 208.718 23.432 208.334 23.688C207.95 23.9333 207.758 24.248 207.758 24.632C207.758 25.0587 207.934 25.3893 208.286 25.624C208.638 25.848 209.054 25.96 209.534 25.96ZM219.226 27.16C218.085 27.16 217.189 26.84 216.538 26.2C215.898 25.5493 215.557 24.6427 215.514 23.48L215.498 22.84L215.514 22.2C215.557 21.0373 215.898 20.136 216.538 19.496C217.189 18.8453 218.085 18.52 219.226 18.52C219.994 18.52 220.645 18.6587 221.178 18.936C221.711 19.2133 222.106 19.5547 222.362 19.96C222.629 20.3653 222.773 20.7707 222.794 21.176C222.805 21.2827 222.773 21.368 222.698 21.432C222.623 21.496 222.533 21.528 222.426 21.528H221.658C221.551 21.528 221.471 21.5067 221.418 21.464C221.365 21.4213 221.311 21.336 221.258 21.208C221.077 20.696 220.821 20.3333 220.49 20.12C220.159 19.896 219.743 19.784 219.242 19.784C218.581 19.784 218.053 19.992 217.658 20.408C217.274 20.8133 217.066 21.4373 217.034 22.28L217.018 22.856L217.034 23.4C217.066 24.2533 217.274 24.8827 217.658 25.288C218.042 25.6933 218.57 25.896 219.242 25.896C219.743 25.896 220.159 25.7893 220.49 25.576C220.821 25.352 221.077 24.984 221.258 24.472C221.311 24.344 221.365 24.2587 221.418 24.216C221.471 24.1627 221.551 24.136 221.658 24.136H222.426C222.533 24.136 222.623 24.1733 222.698 24.248C222.773 24.312 222.805 24.3973 222.794 24.504C222.773 24.8987 222.629 25.304 222.362 25.72C222.106 26.1253 221.711 26.4667 221.178 26.744C220.655 27.0213 220.005 27.16 219.226 27.16ZM225.238 27C225.131 27 225.041 26.968 224.966 26.904C224.902 26.8293 224.87 26.7387 224.87 26.632V16.008C224.87 15.9013 224.902 15.816 224.966 15.752C225.041 15.6773 225.131 15.64 225.238 15.64H225.99C226.097 15.64 226.182 15.6773 226.246 15.752C226.321 15.816 226.358 15.9013 226.358 16.008V21.576L229.51 18.952C229.542 18.9307 229.595 18.888 229.67 18.824C229.745 18.7707 229.814 18.7333 229.878 18.712C229.953 18.6907 230.043 18.68 230.15 18.68H230.998C231.094 18.68 231.174 18.712 231.238 18.776C231.302 18.84 231.334 18.92 231.334 19.016C231.334 19.1333 231.27 19.2347 231.142 19.32L227.446 22.392L231.542 26.376C231.67 26.4827 231.734 26.5787 231.734 26.664C231.734 26.76 231.702 26.84 231.638 26.904C231.574 26.968 231.494 27 231.398 27H230.566C230.406 27 230.289 26.984 230.214 26.952C230.15 26.92 230.054 26.8453 229.926 26.728L226.358 23.32V26.632C226.358 26.7387 226.321 26.8293 226.246 26.904C226.182 26.968 226.097 27 225.99 27H225.238ZM237.766 27C237.659 27 237.568 26.968 237.494 26.904C237.43 26.8293 237.398 26.7387 237.398 26.632V16.184C237.398 16.0667 237.43 15.976 237.494 15.912C237.568 15.8373 237.659 15.8 237.766 15.8H244.294C244.411 15.8 244.502 15.8373 244.566 15.912C244.64 15.976 244.678 16.0667 244.678 16.184V16.824C244.678 16.9307 244.64 17.0213 244.566 17.096C244.502 17.16 244.411 17.192 244.294 17.192H238.95V20.92H243.974C244.091 20.92 244.182 20.9573 244.246 21.032C244.32 21.096 244.358 21.1867 244.358 21.304V21.944C244.358 22.0507 244.32 22.1413 244.246 22.216C244.171 22.28 244.08 22.312 243.974 22.312H238.95V26.632C238.95 26.7387 238.912 26.8293 238.838 26.904C238.763 26.968 238.672 27 238.566 27H237.766ZM246.843 27C246.736 27 246.645 26.968 246.571 26.904C246.507 26.8293 246.475 26.7387 246.475 26.632V19.064C246.475 18.9573 246.507 18.8667 246.571 18.792C246.645 18.7173 246.736 18.68 246.843 18.68H247.579C247.685 18.68 247.776 18.7173 247.851 18.792C247.925 18.8667 247.963 18.9573 247.963 19.064V19.768C248.4 19.0427 249.147 18.68 250.203 18.68H250.827C250.933 18.68 251.019 18.7173 251.083 18.792C251.157 18.856 251.195 18.9413 251.195 19.048V19.704C251.195 19.8107 251.157 19.896 251.083 19.96C251.019 20.024 250.933 20.056 250.827 20.056H249.867C249.291 20.056 248.837 20.2267 248.507 20.568C248.176 20.8987 248.011 21.352 248.011 21.928V26.632C248.011 26.7387 247.973 26.8293 247.899 26.904C247.824 26.968 247.733 27 247.627 27H246.843ZM252.953 17.128C252.846 17.128 252.755 17.096 252.681 17.032C252.617 16.9573 252.585 16.8667 252.585 16.76V15.896C252.585 15.7893 252.617 15.6987 252.681 15.624C252.755 15.5493 252.846 15.512 252.953 15.512H253.961C254.067 15.512 254.158 15.5493 254.233 15.624C254.307 15.6987 254.345 15.7893 254.345 15.896V16.76C254.345 16.8667 254.307 16.9573 254.233 17.032C254.158 17.096 254.067 17.128 253.961 17.128H252.953ZM253.081 27C252.974 27 252.883 26.968 252.809 26.904C252.745 26.8293 252.713 26.7387 252.713 26.632V19.048C252.713 18.9413 252.745 18.856 252.809 18.792C252.883 18.7173 252.974 18.68 253.081 18.68H253.849C253.955 18.68 254.041 18.7173 254.105 18.792C254.179 18.856 254.217 18.9413 254.217 19.048V26.632C254.217 26.7387 254.179 26.8293 254.105 26.904C254.041 26.968 253.955 27 253.849 27H253.081ZM259.788 27.16C258.678 27.16 257.841 26.7973 257.276 26.072C256.71 25.3467 256.412 24.4293 256.38 23.32L256.364 22.84L256.38 22.36C256.412 21.2613 256.71 20.3493 257.276 19.624C257.841 18.888 258.678 18.52 259.788 18.52C260.886 18.52 261.75 18.9093 262.38 19.688V16.008C262.38 15.9013 262.412 15.816 262.476 15.752C262.55 15.6773 262.641 15.64 262.748 15.64H263.516C263.622 15.64 263.708 15.6773 263.772 15.752C263.846 15.816 263.884 15.9013 263.884 16.008V26.632C263.884 26.7387 263.846 26.8293 263.772 26.904C263.708 26.968 263.622 27 263.516 27H262.796C262.689 27 262.598 26.968 262.524 26.904C262.46 26.8293 262.428 26.7387 262.428 26.632V25.96C261.809 26.76 260.929 27.16 259.788 27.16ZM260.124 25.864C260.86 25.864 261.409 25.624 261.772 25.144C262.145 24.6533 262.348 24.072 262.38 23.4C262.39 23.2827 262.396 23.08 262.396 22.792C262.396 22.4933 262.39 22.2853 262.38 22.168C262.358 21.5387 262.156 20.9893 261.772 20.52C261.388 20.0507 260.838 19.816 260.124 19.816C259.366 19.816 258.812 20.0507 258.46 20.52C258.118 20.9893 257.932 21.608 257.9 22.376L257.884 22.84C257.884 24.856 258.63 25.864 260.124 25.864ZM268.743 27.16C268.221 27.16 267.735 27.0533 267.287 26.84C266.839 26.6267 266.482 26.3387 266.215 25.976C265.959 25.6027 265.831 25.192 265.831 24.744C265.831 24.04 266.119 23.464 266.695 23.016C267.282 22.5573 268.071 22.2587 269.063 22.12L271.447 21.784V21.32C271.447 20.232 270.823 19.688 269.575 19.688C269.106 19.688 268.722 19.7893 268.423 19.992C268.125 20.184 267.901 20.4133 267.751 20.68C267.719 20.776 267.677 20.8453 267.623 20.888C267.581 20.9307 267.517 20.952 267.431 20.952H266.743C266.647 20.952 266.562 20.92 266.487 20.856C266.423 20.7813 266.391 20.696 266.391 20.6C266.402 20.344 266.519 20.056 266.743 19.736C266.978 19.4053 267.335 19.1227 267.815 18.888C268.295 18.6427 268.887 18.52 269.591 18.52C270.786 18.52 271.645 18.8027 272.167 19.368C272.69 19.9227 272.951 20.616 272.951 21.448V26.632C272.951 26.7387 272.914 26.8293 272.839 26.904C272.775 26.968 272.69 27 272.583 27H271.847C271.741 27 271.65 26.968 271.575 26.904C271.511 26.8293 271.479 26.7387 271.479 26.632V25.944C271.245 26.2853 270.903 26.5733 270.455 26.808C270.007 27.0427 269.437 27.16 268.743 27.16ZM269.079 25.96C269.773 25.96 270.338 25.736 270.775 25.288C271.223 24.8293 271.447 24.1733 271.447 23.32V22.872L269.591 23.144C268.834 23.2507 268.263 23.432 267.879 23.688C267.495 23.9333 267.303 24.248 267.303 24.632C267.303 25.0587 267.479 25.3893 267.831 25.624C268.183 25.848 268.599 25.96 269.079 25.96ZM276.696 30.04C276.61 30.04 276.536 30.008 276.472 29.944C276.408 29.88 276.376 29.8053 276.376 29.72C276.376 29.6453 276.402 29.5493 276.456 29.432L277.688 26.504L274.632 19.288C274.578 19.1493 274.552 19.0587 274.552 19.016C274.552 18.92 274.584 18.84 274.648 18.776C274.712 18.712 274.792 18.68 274.888 18.68H275.672C275.842 18.68 275.97 18.7707 276.056 18.952L278.488 24.776L280.984 18.952C281.069 18.7707 281.202 18.68 281.384 18.68H282.136C282.232 18.68 282.312 18.712 282.376 18.776C282.44 18.84 282.472 18.9147 282.472 19C282.472 19.032 282.445 19.128 282.392 19.288L277.848 29.768C277.762 29.9493 277.629 30.04 277.448 30.04H276.696ZM289.721 27C289.582 27 289.475 26.968 289.401 26.904C289.326 26.84 289.262 26.7387 289.209 26.6L286.937 19.176L286.905 19.016C286.905 18.92 286.937 18.84 287.001 18.776C287.075 18.712 287.155 18.68 287.241 18.68H287.945C288.051 18.68 288.137 18.712 288.201 18.776C288.275 18.8293 288.323 18.888 288.345 18.952L290.121 24.984L292.025 19.016C292.046 18.9307 292.094 18.856 292.169 18.792C292.243 18.7173 292.345 18.68 292.473 18.68H293.017C293.145 18.68 293.246 18.7173 293.321 18.792C293.395 18.856 293.443 18.9307 293.465 19.016L295.369 24.984L297.145 18.952C297.155 18.8987 297.193 18.84 297.257 18.776C297.331 18.712 297.422 18.68 297.529 18.68H298.249C298.334 18.68 298.409 18.712 298.473 18.776C298.537 18.84 298.569 18.92 298.569 19.016L298.537 19.176L296.281 26.6C296.227 26.7387 296.163 26.84 296.089 26.904C296.014 26.968 295.902 27 295.753 27H295.129C294.841 27 294.665 26.8667 294.601 26.6L292.745 20.872L290.889 26.6C290.803 26.8667 290.622 27 290.345 27H289.721ZM303.61 27.16C302.511 27.16 301.631 26.824 300.97 26.152C300.319 25.4693 299.962 24.5413 299.898 23.368L299.882 22.824L299.898 22.296C299.973 21.144 300.335 20.2267 300.986 19.544C301.647 18.8613 302.517 18.52 303.594 18.52C304.778 18.52 305.695 18.8987 306.346 19.656C306.997 20.4027 307.322 21.416 307.322 22.696V22.968C307.322 23.0747 307.285 23.1653 307.21 23.24C307.146 23.304 307.061 23.336 306.954 23.336H301.418V23.48C301.45 24.1733 301.658 24.7653 302.042 25.256C302.437 25.736 302.954 25.976 303.594 25.976C304.085 25.976 304.485 25.88 304.794 25.688C305.114 25.4853 305.349 25.2773 305.498 25.064C305.594 24.936 305.663 24.8613 305.706 24.84C305.759 24.808 305.85 24.792 305.978 24.792H306.762C306.858 24.792 306.938 24.8187 307.002 24.872C307.066 24.9253 307.098 25 307.098 25.096C307.098 25.3307 306.949 25.6133 306.65 25.944C306.362 26.2747 305.951 26.5627 305.418 26.808C304.895 27.0427 304.293 27.16 303.61 27.16ZM305.802 22.232V22.184C305.802 21.448 305.599 20.8507 305.194 20.392C304.799 19.9227 304.266 19.688 303.594 19.688C302.922 19.688 302.389 19.9227 301.994 20.392C301.61 20.8507 301.418 21.448 301.418 22.184V22.232H305.802ZM312.723 27.16C311.625 27.16 310.745 26.824 310.083 26.152C309.433 25.4693 309.075 24.5413 309.011 23.368L308.995 22.824L309.011 22.296C309.086 21.144 309.449 20.2267 310.099 19.544C310.761 18.8613 311.63 18.52 312.707 18.52C313.891 18.52 314.809 18.8987 315.459 19.656C316.11 20.4027 316.435 21.416 316.435 22.696V22.968C316.435 23.0747 316.398 23.1653 316.323 23.24C316.259 23.304 316.174 23.336 316.067 23.336H310.531V23.48C310.563 24.1733 310.771 24.7653 311.155 25.256C311.55 25.736 312.067 25.976 312.707 25.976C313.198 25.976 313.598 25.88 313.907 25.688C314.227 25.4853 314.462 25.2773 314.611 25.064C314.707 24.936 314.777 24.8613 314.819 24.84C314.873 24.808 314.963 24.792 315.091 24.792H315.875C315.971 24.792 316.051 24.8187 316.115 24.872C316.179 24.9253 316.211 25 316.211 25.096C316.211 25.3307 316.062 25.6133 315.763 25.944C315.475 26.2747 315.065 26.5627 314.531 26.808C314.009 27.0427 313.406 27.16 312.723 27.16ZM314.915 22.232V22.184C314.915 21.448 314.713 20.8507 314.307 20.392C313.913 19.9227 313.379 19.688 312.707 19.688C312.035 19.688 311.502 19.9227 311.107 20.392C310.723 20.8507 310.531 21.448 310.531 22.184V22.232H314.915ZM318.892 27C318.786 27 318.695 26.968 318.62 26.904C318.556 26.8293 318.524 26.7387 318.524 26.632V16.008C318.524 15.9013 318.556 15.816 318.62 15.752C318.695 15.6773 318.786 15.64 318.892 15.64H319.644C319.751 15.64 319.836 15.6773 319.9 15.752C319.975 15.816 320.012 15.9013 320.012 16.008V21.576L323.164 18.952C323.196 18.9307 323.25 18.888 323.324 18.824C323.399 18.7707 323.468 18.7333 323.532 18.712C323.607 18.6907 323.698 18.68 323.804 18.68H324.652C324.748 18.68 324.828 18.712 324.892 18.776C324.956 18.84 324.988 18.92 324.988 19.016C324.988 19.1333 324.924 19.2347 324.796 19.32L321.1 22.392L325.196 26.376C325.324 26.4827 325.388 26.5787 325.388 26.664C325.388 26.76 325.356 26.84 325.292 26.904C325.228 26.968 325.148 27 325.052 27H324.22C324.06 27 323.943 26.984 323.868 26.952C323.804 26.92 323.708 26.8453 323.58 26.728L320.012 23.32V26.632C320.012 26.7387 319.975 26.8293 319.9 26.904C319.836 26.968 319.751 27 319.644 27H318.892ZM329.856 27.16C328.757 27.16 327.877 26.824 327.216 26.152C326.565 25.4693 326.208 24.5413 326.144 23.368L326.128 22.824L326.144 22.296C326.218 21.144 326.581 20.2267 327.232 19.544C327.893 18.8613 328.762 18.52 329.84 18.52C331.024 18.52 331.941 18.8987 332.592 19.656C333.242 20.4027 333.568 21.416 333.568 22.696V22.968C333.568 23.0747 333.53 23.1653 333.456 23.24C333.392 23.304 333.306 23.336 333.2 23.336H327.664V23.48C327.696 24.1733 327.904 24.7653 328.288 25.256C328.682 25.736 329.2 25.976 329.84 25.976C330.33 25.976 330.73 25.88 331.04 25.688C331.36 25.4853 331.594 25.2773 331.744 25.064C331.84 24.936 331.909 24.8613 331.952 24.84C332.005 24.808 332.096 24.792 332.224 24.792H333.008C333.104 24.792 333.184 24.8187 333.248 24.872C333.312 24.9253 333.344 25 333.344 25.096C333.344 25.3307 333.194 25.6133 332.896 25.944C332.608 26.2747 332.197 26.5627 331.664 26.808C331.141 27.0427 330.538 27.16 329.856 27.16ZM332.048 22.232V22.184C332.048 21.448 331.845 20.8507 331.44 20.392C331.045 19.9227 330.512 19.688 329.84 19.688C329.168 19.688 328.634 19.9227 328.24 20.392C327.856 20.8507 327.664 21.448 327.664 22.184V22.232H332.048ZM336.009 27C335.902 27 335.812 26.968 335.737 26.904C335.673 26.8293 335.641 26.7387 335.641 26.632V19.048C335.641 18.9413 335.673 18.856 335.737 18.792C335.812 18.7173 335.902 18.68 336.009 18.68H336.761C336.868 18.68 336.953 18.7173 337.017 18.792C337.092 18.856 337.129 18.9413 337.129 19.048V19.752C337.438 19.3573 337.801 19.0533 338.217 18.84C338.644 18.6267 339.172 18.52 339.801 18.52C340.825 18.52 341.62 18.8507 342.185 19.512C342.761 20.1627 343.049 21.032 343.049 22.12V26.632C343.049 26.7387 343.012 26.8293 342.937 26.904C342.873 26.968 342.788 27 342.681 27H341.881C341.774 27 341.684 26.968 341.609 26.904C341.545 26.8293 341.513 26.7387 341.513 26.632V22.2C341.513 21.4427 341.326 20.856 340.953 20.44C340.59 20.024 340.062 19.816 339.369 19.816C338.697 19.816 338.164 20.0293 337.769 20.456C337.374 20.872 337.177 21.4533 337.177 22.2V26.632C337.177 26.7387 337.14 26.8293 337.065 26.904C337.001 26.968 336.916 27 336.809 27H336.009ZM348.544 27.16C347.435 27.16 346.597 26.7973 346.032 26.072C345.467 25.3467 345.168 24.4293 345.136 23.32L345.12 22.84L345.136 22.36C345.168 21.2613 345.467 20.3493 346.032 19.624C346.597 18.888 347.435 18.52 348.544 18.52C349.643 18.52 350.507 18.9093 351.136 19.688V16.008C351.136 15.9013 351.168 15.816 351.232 15.752C351.307 15.6773 351.397 15.64 351.504 15.64H352.272C352.379 15.64 352.464 15.6773 352.528 15.752C352.603 15.816 352.64 15.9013 352.64 16.008V26.632C352.64 26.7387 352.603 26.8293 352.528 26.904C352.464 26.968 352.379 27 352.272 27H351.552C351.445 27 351.355 26.968 351.28 26.904C351.216 26.8293 351.184 26.7387 351.184 26.632V25.96C350.565 26.76 349.685 27.16 348.544 27.16ZM348.88 25.864C349.616 25.864 350.165 25.624 350.528 25.144C350.901 24.6533 351.104 24.072 351.136 23.4C351.147 23.2827 351.152 23.08 351.152 22.792C351.152 22.4933 351.147 22.2853 351.136 22.168C351.115 21.5387 350.912 20.9893 350.528 20.52C350.144 20.0507 349.595 19.816 348.88 19.816C348.123 19.816 347.568 20.0507 347.216 20.52C346.875 20.9893 346.688 21.608 346.656 22.376L346.64 22.84C346.64 24.856 347.387 25.864 348.88 25.864Z" fill="white"/>
<rect x="4" y="4" width="113" height="32" rx="16" fill="white"/>
<path d="M22.32 25C22.224 25 22.144 24.968 22.08 24.904C22.016 24.8293 21.984 24.744 21.984 24.648C21.984 24.616 21.9947 24.568 22.016 24.504L25.872 15.704H20.848C20.7413 15.704 20.6507 15.6667 20.576 15.592C20.5013 15.5173 20.464 15.4267 20.464 15.32V14.2C20.464 14.0827 20.496 13.9867 20.56 13.912C20.6347 13.8373 20.7307 13.8 20.848 13.8H27.872C27.9893 13.8 28.08 13.8373 28.144 13.912C28.2187 13.9867 28.256 14.0827 28.256 14.2V15.192C28.256 15.4053 28.208 15.6347 28.112 15.88L24.288 24.616C24.1707 24.872 24 25 23.776 25H22.32ZM34.2235 25.176C33.3382 25.176 32.5755 25.0267 31.9355 24.728C31.3062 24.4293 30.8208 24.0347 30.4795 23.544C30.1488 23.0533 29.9728 22.5253 29.9515 21.96V21.928C29.9515 21.8427 29.9835 21.7733 30.0475 21.72C30.1115 21.6667 30.1915 21.64 30.2875 21.64H31.7755C32.0208 21.64 32.1808 21.7467 32.2555 21.96C32.4048 22.4293 32.6502 22.776 32.9915 23C33.3435 23.224 33.7542 23.336 34.2235 23.336C34.8208 23.336 35.3168 23.1547 35.7115 22.792C36.1168 22.4293 36.3195 21.9227 36.3195 21.272C36.3195 20.696 36.1168 20.2267 35.7115 19.864C35.3168 19.5013 34.8208 19.32 34.2235 19.32C33.9035 19.32 33.6422 19.3627 33.4395 19.448C33.2368 19.5333 33.0395 19.6507 32.8475 19.8C32.7195 19.896 32.6182 19.9653 32.5435 20.008C32.4795 20.04 32.3995 20.056 32.3035 20.056H30.8315C30.7355 20.056 30.6502 20.024 30.5755 19.96C30.5115 19.8853 30.4795 19.8 30.4795 19.704L31.0395 14.232C31.0502 14.104 31.0928 14.0027 31.1675 13.928C31.2528 13.8427 31.3595 13.8 31.4875 13.8H37.5035C37.6102 13.8 37.7008 13.8373 37.7755 13.912C37.8502 13.9867 37.8875 14.0773 37.8875 14.184V15.256C37.8875 15.3627 37.8502 15.4533 37.7755 15.528C37.7008 15.6027 37.6102 15.64 37.5035 15.64H32.8795L32.6235 18.248C33.1462 17.8853 33.8448 17.704 34.7195 17.704C35.4128 17.704 36.0528 17.8533 36.6395 18.152C37.2368 18.44 37.7115 18.8613 38.0635 19.416C38.4155 19.96 38.5915 20.5947 38.5915 21.32C38.5915 22.0987 38.4102 22.7813 38.0475 23.368C37.6848 23.944 37.1728 24.392 36.5115 24.712C35.8608 25.0213 35.0982 25.176 34.2235 25.176ZM42.9614 19.432C42.2574 19.432 41.692 19.2453 41.2654 18.872C40.8494 18.4987 40.62 17.992 40.5774 17.352C40.5667 17.1707 40.5614 16.9307 40.5614 16.632C40.5614 16.312 40.5667 16.056 40.5774 15.864C40.62 15.2027 40.844 14.68 41.2494 14.296C41.6547 13.912 42.2254 13.72 42.9614 13.72C43.6974 13.72 44.268 13.912 44.6734 14.296C45.0894 14.68 45.3134 15.2027 45.3454 15.864C45.3667 16.2907 45.3774 16.568 45.3774 16.696C45.3774 16.8133 45.3667 17.032 45.3454 17.352C45.3134 17.992 45.084 18.4987 44.6574 18.872C44.2414 19.2453 43.676 19.432 42.9614 19.432ZM41.6494 25C41.5534 25 41.4734 24.9733 41.4094 24.92C41.3454 24.856 41.3134 24.776 41.3134 24.68C41.3134 24.616 41.3347 24.5573 41.3774 24.504L49.2654 14.104C49.3507 13.9973 49.4307 13.9227 49.5054 13.88C49.58 13.8267 49.6814 13.8 49.8094 13.8H50.6574C50.764 13.8 50.844 13.832 50.8974 13.896C50.9614 13.9493 50.9934 14.024 50.9934 14.12C50.9934 14.184 50.972 14.2427 50.9294 14.296L43.0414 24.696C42.956 24.8027 42.876 24.8827 42.8014 24.936C42.7267 24.9787 42.6254 25 42.4974 25H41.6494ZM42.9614 18.248C43.2707 18.248 43.5 18.1573 43.6494 17.976C43.7987 17.784 43.884 17.5493 43.9054 17.272C43.9267 16.9093 43.9374 16.6853 43.9374 16.6C43.9374 16.4827 43.9267 16.264 43.9054 15.944C43.8947 15.6667 43.8094 15.4373 43.6494 15.256C43.5 15.064 43.2707 14.968 42.9614 14.968C42.652 14.968 42.4227 15.064 42.2734 15.256C42.124 15.4373 42.044 15.6667 42.0334 15.944C42.0227 16.104 42.0174 16.3227 42.0174 16.6C42.0174 16.8667 42.0227 17.0907 42.0334 17.272C42.0547 17.5493 42.1347 17.784 42.2734 17.976C42.4227 18.1573 42.652 18.248 42.9614 18.248ZM49.3454 25.096C48.6414 25.096 48.076 24.904 47.6494 24.52C47.2334 24.1253 47.004 23.6027 46.9614 22.952C46.9507 22.7707 46.9454 22.5307 46.9454 22.232C46.9454 21.9227 46.9507 21.672 46.9614 21.48C47.004 20.8187 47.228 20.296 47.6334 19.912C48.0387 19.528 48.6094 19.336 49.3454 19.336C50.0814 19.336 50.652 19.528 51.0574 19.912C51.4734 20.296 51.6974 20.8187 51.7294 21.48C51.7507 21.9067 51.7614 22.1787 51.7614 22.296C51.7614 22.4133 51.7507 22.632 51.7294 22.952C51.6867 23.6027 51.452 24.1253 51.0254 24.52C50.6094 24.904 50.0494 25.096 49.3454 25.096ZM49.3454 23.848C49.6654 23.848 49.8947 23.7573 50.0334 23.576C50.1827 23.384 50.268 23.1547 50.2894 22.888C50.3107 22.5253 50.3214 22.3013 50.3214 22.216C50.3214 22.0987 50.3107 21.88 50.2894 21.56C50.2787 21.2827 50.1934 21.048 50.0334 20.856C49.884 20.664 49.6547 20.568 49.3454 20.568C49.036 20.568 48.8067 20.664 48.6574 20.856C48.508 21.0373 48.4227 21.272 48.4014 21.56C48.3907 21.72 48.3854 21.9387 48.3854 22.216C48.3854 22.4827 48.3907 22.7067 48.4014 22.888C48.4334 23.1653 48.5187 23.3947 48.6574 23.576C48.8067 23.7573 49.036 23.848 49.3454 23.848ZM62.5085 25.16C61.5592 25.16 60.7432 25.016 60.0605 24.728C59.3778 24.44 58.8605 24.0613 58.5085 23.592C58.1565 23.1227 57.9698 22.616 57.9485 22.072C57.9485 21.976 57.9805 21.896 58.0445 21.832C58.1085 21.768 58.1885 21.736 58.2845 21.736H59.7085C59.8365 21.736 59.9325 21.7627 59.9965 21.816C60.0712 21.8587 60.1405 21.9333 60.2045 22.04C60.3112 22.4027 60.5565 22.7067 60.9405 22.952C61.3245 23.1973 61.8472 23.32 62.5085 23.32C63.2658 23.32 63.8365 23.1973 64.2205 22.952C64.6045 22.696 64.7965 22.344 64.7965 21.896C64.7965 21.5973 64.6952 21.352 64.4925 21.16C64.3005 20.968 64.0072 20.8027 63.6125 20.664C63.2285 20.5253 62.6525 20.3547 61.8845 20.152C60.6258 19.8533 59.7032 19.4587 59.1165 18.968C58.5405 18.4667 58.2525 17.7573 58.2525 16.84C58.2525 16.2213 58.4178 15.672 58.7485 15.192C59.0898 14.712 59.5752 14.3333 60.2045 14.056C60.8445 13.7787 61.5858 13.64 62.4285 13.64C63.3032 13.64 64.0605 13.7947 64.7005 14.104C65.3405 14.4133 65.8258 14.8027 66.1565 15.272C66.4978 15.7307 66.6792 16.1893 66.7005 16.648C66.7005 16.744 66.6685 16.824 66.6045 16.888C66.5405 16.952 66.4605 16.984 66.3645 16.984H64.8765C64.6525 16.984 64.4978 16.8827 64.4125 16.68C64.3485 16.3387 64.1352 16.056 63.7725 15.832C63.4098 15.5973 62.9618 15.48 62.4285 15.48C61.8312 15.48 61.3618 15.592 61.0205 15.816C60.6792 16.04 60.5085 16.3653 60.5085 16.792C60.5085 17.0907 60.5938 17.336 60.7645 17.528C60.9352 17.72 61.2018 17.8907 61.5645 18.04C61.9378 18.1893 62.4712 18.3547 63.1645 18.536C64.1032 18.7493 64.8498 18.9893 65.4045 19.256C65.9698 19.5227 66.3858 19.8587 66.6525 20.264C66.9192 20.6693 67.0525 21.1867 67.0525 21.816C67.0525 22.4987 66.8605 23.096 66.4765 23.608C66.1032 24.1093 65.5698 24.4933 64.8765 24.76C64.1938 25.0267 63.4045 25.16 62.5085 25.16ZM68.6663 25C68.5809 25 68.5009 24.968 68.4263 24.904C68.3623 24.84 68.3303 24.76 68.3303 24.664L68.3623 24.52L72.2183 14.2C72.2929 13.9333 72.4796 13.8 72.7783 13.8H74.5223C74.7996 13.8 74.9863 13.9333 75.0823 14.2L78.9383 24.52C78.9489 24.552 78.9543 24.6 78.9543 24.664C78.9543 24.76 78.9223 24.84 78.8583 24.904C78.7943 24.968 78.7196 25 78.6343 25H77.2423C77.1036 25 76.9969 24.968 76.9223 24.904C76.8476 24.84 76.7996 24.7707 76.7783 24.696L76.0263 22.744H71.2743L70.5223 24.696C70.4369 24.8987 70.2823 25 70.0583 25H68.6663ZM75.4663 20.904L73.6423 15.96L71.8343 20.904H75.4663ZM83.5239 25C83.2145 25 83.0119 24.8507 82.9159 24.552L79.4919 14.28L79.4599 14.136C79.4599 14.04 79.4919 13.96 79.5559 13.896C79.6199 13.832 79.6999 13.8 79.7959 13.8H81.2039C81.3425 13.8 81.4492 13.8373 81.5239 13.912C81.6092 13.976 81.6679 14.056 81.6999 14.152L84.4039 22.392L87.1079 14.152C87.1292 14.0667 87.1825 13.9867 87.2679 13.912C87.3532 13.8373 87.4652 13.8 87.6039 13.8H89.0119C89.0972 13.8 89.1719 13.832 89.2359 13.896C89.3105 13.96 89.3479 14.04 89.3479 14.136L89.3159 14.28L85.8919 24.552C85.7959 24.8507 85.5932 25 85.2839 25H83.5239ZM92.0651 25C91.9585 25 91.8678 24.9627 91.7931 24.888C91.7185 24.8133 91.6811 24.7227 91.6811 24.616V14.2C91.6811 14.0827 91.7131 13.9867 91.7771 13.912C91.8518 13.8373 91.9478 13.8 92.0651 13.8H99.1051C99.2225 13.8 99.3185 13.8373 99.3931 13.912C99.4678 13.9867 99.5051 14.0827 99.5051 14.2V15.256C99.5051 15.3733 99.4678 15.4693 99.3931 15.544C99.3185 15.608 99.2225 15.64 99.1051 15.64H93.8411V18.472H98.7531C98.8705 18.472 98.9665 18.5093 99.0411 18.584C99.1158 18.648 99.1531 18.7387 99.1531 18.856V19.848C99.1531 19.9653 99.1158 20.0613 99.0411 20.136C98.9665 20.2 98.8705 20.232 98.7531 20.232H93.8411V23.16H99.2331C99.3505 23.16 99.4465 23.1973 99.5211 23.272C99.5958 23.3467 99.6331 23.4427 99.6331 23.56V24.616C99.6331 24.7333 99.5958 24.8293 99.5211 24.904C99.4465 24.968 99.3505 25 99.2331 25H92.0651Z" fill="#0D0D2B"/>
</svg>
