<svg width="248" height="24" viewBox="0 0 248 24" fill="none" xmlns="http://www.w3.org/2000/svg">
<path d="M15.12 5.32H17V2.14C16.0897 2.04535 15.1751 1.99862 14.26 2C11.54 2 9.67999 3.66 9.67999 6.7V9.32H6.60999V12.88H9.67999V22H13.36V12.88H16.42L16.88 9.32H13.36V7.05C13.36 6 13.64 5.32 15.12 5.32Z" fill="white"/>
<path d="M73.34 5.46C73.1027 5.46 72.8707 5.53038 72.6733 5.66224C72.476 5.79409 72.3222 5.98151 72.2313 6.20078C72.1405 6.42005 72.1168 6.66133 72.1631 6.89411C72.2094 7.12689 72.3236 7.34071 72.4915 7.50853C72.6593 7.67635 72.8731 7.79064 73.1059 7.83694C73.3387 7.88324 73.5799 7.85948 73.7992 7.76866C74.0185 7.67783 74.2059 7.52402 74.3378 7.32668C74.4696 7.12935 74.54 6.89734 74.54 6.66C74.54 6.34174 74.4136 6.03652 74.1885 5.81147C73.9635 5.58643 73.6583 5.46 73.34 5.46ZM77.94 7.88C77.9206 7.0503 77.7652 6.2294 77.48 5.45C77.2257 4.78313 76.83 4.17928 76.32 3.68C75.8248 3.16743 75.2196 2.77418 74.55 2.53C73.7727 2.23616 72.9508 2.07721 72.12 2.06C71.06 2 70.72 2 68 2C65.28 2 64.94 2 63.88 2.06C63.0492 2.07721 62.2273 2.23616 61.45 2.53C60.7817 2.77665 60.1769 3.16956 59.68 3.68C59.1674 4.17518 58.7742 4.78044 58.53 5.45C58.2362 6.22734 58.0772 7.04915 58.06 7.88C58 8.94 58 9.28 58 12C58 14.72 58 15.06 58.06 16.12C58.0772 16.9508 58.2362 17.7727 58.53 18.55C58.7742 19.2196 59.1674 19.8248 59.68 20.32C60.1769 20.8304 60.7817 21.2234 61.45 21.47C62.2273 21.7638 63.0492 21.9228 63.88 21.94C64.94 22 65.28 22 68 22C70.72 22 71.06 22 72.12 21.94C72.9508 21.9228 73.7727 21.7638 74.55 21.47C75.2196 21.2258 75.8248 20.8326 76.32 20.32C76.8322 19.8226 77.2283 19.2182 77.48 18.55C77.7652 17.7706 77.9206 16.9497 77.94 16.12C77.94 15.06 78 14.72 78 12C78 9.28 78 8.94 77.94 7.88ZM76.14 16C76.1327 16.6348 76.0178 17.2637 75.8 17.86C75.6403 18.2952 75.3839 18.6884 75.05 19.01C74.7256 19.3405 74.3332 19.5964 73.9 19.76C73.3037 19.9778 72.6748 20.0927 72.04 20.1C71.04 20.15 70.67 20.16 68.04 20.16C65.41 20.16 65.04 20.16 64.04 20.1C63.3809 20.1123 62.7246 20.0109 62.1 19.8C61.6858 19.6281 61.3114 19.3728 61 19.05C60.6681 18.7287 60.4148 18.3352 60.26 17.9C60.0159 17.2952 59.8804 16.6519 59.86 16C59.86 15 59.8 14.63 59.8 12C59.8 9.37 59.8 9 59.86 8C59.8645 7.35106 59.983 6.70795 60.21 6.1C60.386 5.67791 60.6563 5.30166 61 5C61.3038 4.65617 61.6793 4.3831 62.1 4.2C62.7096 3.98004 63.352 3.86508 64 3.86C65 3.86 65.37 3.8 68 3.8C70.63 3.8 71 3.8 72 3.86C72.6348 3.86728 73.2637 3.98225 73.86 4.2C74.3144 4.36865 74.7223 4.64285 75.05 5C75.3777 5.30718 75.6338 5.68273 75.8 6.1C76.0223 6.70893 76.1373 7.35178 76.14 8C76.19 9 76.2 9.37 76.2 12C76.2 14.63 76.19 15 76.14 16ZM68 6.87C66.9858 6.87198 65.995 7.17453 65.1527 7.73942C64.3103 8.30431 63.6544 9.1062 63.2676 10.0438C62.8809 10.9813 62.7807 12.0125 62.9798 13.0069C63.1789 14.0014 63.6682 14.9145 64.3861 15.631C65.1039 16.3474 66.018 16.835 67.0129 17.0321C68.0077 17.2293 69.0387 17.1271 69.9755 16.7385C70.9123 16.35 71.7129 15.6924 72.2761 14.849C72.8394 14.0056 73.14 13.0142 73.14 12C73.1413 11.3251 73.0092 10.6566 72.7512 10.033C72.4933 9.40931 72.1146 8.84281 71.6369 8.36605C71.1592 7.88929 70.5919 7.51168 69.9678 7.25493C69.3436 6.99818 68.6749 6.86736 68 6.87ZM68 15.33C67.3414 15.33 66.6976 15.1347 66.15 14.7688C65.6023 14.4029 65.1755 13.8828 64.9235 13.2743C64.6714 12.6659 64.6055 11.9963 64.734 11.3503C64.8625 10.7044 65.1796 10.111 65.6453 9.64533C66.111 9.17963 66.7044 8.86247 67.3503 8.73398C67.9963 8.6055 68.6659 8.67144 69.2743 8.92348C69.8828 9.17552 70.4029 9.60234 70.7688 10.15C71.1347 10.6976 71.33 11.3414 71.33 12C71.33 12.4373 71.2439 12.8703 71.0765 13.2743C70.9092 13.6784 70.6639 14.0454 70.3547 14.3547C70.0454 14.6639 69.6784 14.9092 69.2743 15.0765C68.8703 15.2439 68.4373 15.33 68 15.33Z" fill="white"/>
<path d="M135 9.71C135.049 8.27865 134.736 6.85802 134.09 5.58C133.651 5.0556 133.043 4.70171 132.37 4.58C129.588 4.32752 126.794 4.22404 124 4.27C121.217 4.22196 118.433 4.3221 115.66 4.57C115.112 4.66972 114.605 4.92684 114.2 5.31C113.3 6.14 113.2 7.56 113.1 8.76C112.955 10.9176 112.955 13.0824 113.1 15.24C113.129 15.9154 113.229 16.5858 113.4 17.24C113.521 17.7451 113.765 18.2123 114.11 18.6C114.517 19.0035 115.036 19.2752 115.6 19.38C117.756 19.6461 119.928 19.7564 122.1 19.71C125.6 19.76 128.67 19.71 132.3 19.43C132.877 19.3316 133.411 19.0595 133.83 18.65C134.11 18.3699 134.319 18.0271 134.44 17.65C134.798 16.5526 134.973 15.4041 134.96 14.25C135 13.69 135 10.31 135 9.71ZM121.74 14.85V8.66L127.66 11.77C126 12.69 123.81 13.73 121.74 14.85Z" fill="white"/>
<path d="M190 5.8C189.248 6.1261 188.453 6.34167 187.64 6.44C188.498 5.92732 189.141 5.12079 189.45 4.17C188.644 4.65007 187.761 4.9883 186.84 5.17C186.225 4.50258 185.405 4.0583 184.51 3.90686C183.615 3.75541 182.695 3.90536 181.894 4.33319C181.093 4.76102 180.457 5.44253 180.085 6.27084C179.714 7.09915 179.627 8.02739 179.84 8.91C178.209 8.82753 176.614 8.40296 175.159 7.66387C173.703 6.92477 172.419 5.8877 171.39 4.62C171.029 5.25017 170.84 5.96383 170.84 6.69C170.839 7.36439 171.004 8.02862 171.322 8.62357C171.639 9.21852 172.099 9.72571 172.66 10.1C172.008 10.0823 171.37 9.9073 170.8 9.59V9.64C170.805 10.5849 171.136 11.4991 171.737 12.228C172.339 12.9568 173.173 13.4556 174.1 13.64C173.743 13.7486 173.373 13.8058 173 13.81C172.742 13.807 172.484 13.7836 172.23 13.74C172.494 14.5528 173.005 15.2631 173.691 15.7722C174.378 16.2812 175.206 16.5636 176.06 16.58C174.617 17.7153 172.836 18.3349 171 18.34C170.666 18.3411 170.332 18.3211 170 18.28C171.874 19.4903 174.059 20.1327 176.29 20.13C177.83 20.146 179.357 19.855 180.783 19.2741C182.209 18.6931 183.505 17.8339 184.595 16.7465C185.685 15.6591 186.548 14.3654 187.133 12.9409C187.717 11.5164 188.012 9.98973 188 8.45C188 8.28 188 8.1 188 7.92C188.785 7.33481 189.461 6.61743 190 5.8Z" fill="white"/>
<path d="M244.47 2H227.53C227.34 1.99736 227.15 2.03225 226.974 2.10269C226.797 2.17312 226.635 2.27772 226.499 2.41051C226.362 2.54331 226.253 2.70169 226.178 2.87661C226.103 3.05154 226.063 3.23958 226.06 3.43V20.57C226.063 20.7604 226.103 20.9485 226.178 21.1234C226.253 21.2983 226.362 21.4567 226.499 21.5895C226.635 21.7223 226.797 21.8269 226.974 21.8973C227.15 21.9678 227.34 22.0026 227.53 22H244.47C244.66 22.0026 244.849 21.9678 245.026 21.8973C245.203 21.8269 245.365 21.7223 245.501 21.5895C245.638 21.4567 245.747 21.2983 245.822 21.1234C245.897 20.9485 245.937 20.7604 245.94 20.57V3.43C245.937 3.23958 245.897 3.05154 245.822 2.87661C245.747 2.70169 245.638 2.54331 245.501 2.41051C245.365 2.27772 245.203 2.17312 245.026 2.10269C244.849 2.03225 244.66 1.99736 244.47 2ZM232.09 18.74H229.09V9.74H232.09V18.74ZM230.59 8.48C230.176 8.48 229.779 8.31565 229.487 8.02309C229.194 7.73053 229.03 7.33374 229.03 6.92C229.03 6.50626 229.194 6.10947 229.487 5.81692C229.779 5.52436 230.176 5.36 230.59 5.36C230.81 5.33509 231.032 5.35686 231.243 5.42389C231.454 5.49092 231.648 5.60169 231.813 5.74896C231.978 5.89624 232.11 6.07668 232.2 6.27848C232.29 6.48029 232.337 6.6989 232.337 6.92C232.337 7.14111 232.29 7.35972 232.2 7.56152C232.11 7.76332 231.978 7.94377 231.813 8.09104C231.648 8.23831 231.454 8.34909 231.243 8.41612C231.032 8.48315 230.81 8.50492 230.59 8.48ZM242.91 18.74H239.91V13.91C239.91 12.7 239.48 11.91 238.39 11.91C238.053 11.9125 237.724 12.0183 237.449 12.2132C237.173 12.4081 236.964 12.6827 236.85 13C236.772 13.235 236.738 13.4826 236.75 13.73V18.73H233.75C233.75 18.73 233.75 10.55 233.75 9.73H236.75V11C237.023 10.5271 237.419 10.1375 237.896 9.8732C238.374 9.60889 238.915 9.47985 239.46 9.5C241.46 9.5 242.91 10.79 242.91 13.56V18.74Z" fill="white"/>
</svg>
